<svg xmlns="http://www.w3.org/2000/svg" version="1.1" xmlns:xlink="http://www.w3.org/1999/xlink" xmlns:svgjs="http://svgjs.com/svgjs" width="100%" height="100%" viewBox="0 0 1000 600"><rect width="1000" height="600" x="0" y="0" fill="#2b3252"/><g><rect width="333.3333333333333" height="333.3333333333333" rx="13.333333333333334" ry="13.333333333333334" y="222.0873173661716" fill="#fad744" transform="matrix(0.6254217321863289,0,0,0.6254217321863288,0,56.86478063580098)" x="199.86512756347656"/><path d="M263.61197733591183 463.7539843939989L243.61595597573162 463.7539843939989L207.08591098340239 313.753979384647L226.21643291157483 313.753979384647L242.33262923172006 385.9784147452979L254.77791416783225 442.05680897780337L255.22558628783628 442.05680897780337L269.19295643196216 385.9784147452979L288.0847198961324 313.753979384647L308.73732703231855 313.753979384647L327.00234952848314 385.9784147452979L340.969719672609 441.84789532180145L341.59646064061474 441.84789532180145L354.4894176967309 385.9784147452979L371.47111344888395 313.753979384647L389.9450496010504 313.753979384647L351.4750920887037 463.7539843939989L331.5089155365238 463.7539843939989L311.96056629634757 388.96289554532484L298.2021098082236 333.9589144008291L297.7544376882196 333.9589144008291L283.57815388809183 388.96289554532484L263.61197733591183 463.7539843939989ZM414.23872331326936 463.7539843939989L414.23872331326936 313.753979384647L464.52722479372267 313.753979384647Q478.49459493784855 313.753979384647 489.86546678595096 318.4993038566898Q501.2661834420537 323.2147835207322 509.32428160212635 332.5562084248165Q517.382379762199 341.9274781369009 521.6800321142377 355.9843827050276Q525.9776844662765 370.07113208115453 525.9776844662765 388.7539818893229L525.9776844662765 388.7539818893229Q525.9776844662765 407.4666765054916 521.6800321142377 421.5235810736183Q517.382379762199 435.6103304497453 509.32428160212635 444.95175535382947Q501.2661834420537 454.29318025791366 489.86546678595096 459.0385047299564Q478.49459493784855 463.7539843939989 464.52722479372267 463.7539843939989L464.52722479372267 463.7539843939989L414.23872331326936 463.7539843939989ZM432.29483215343214 447.8467017298555L464.52722479372267 447.8467017298555Q473.7492704658058 447.8467017298555 481.4790757378754 444.7428416978276Q489.23872581794535 441.60913685779934 494.8197049139957 435.6103304497453Q500.400684010046 429.5816792336909 503.5045440420739 420.8968401056126Q506.6382488821022 412.1821561695341 506.6382488821022 401.0201979774335L506.6382488821022 401.0201979774335L506.6382488821022 376.5176106092127Q506.6382488821022 365.3258076091118 503.5045440420739 356.6409684810335Q500.400684010046 347.92628454495497 494.8197049139957 341.9274781369009Q489.23872581794535 335.89882692084655 481.4790757378754 332.7949668888186Q473.7492704658058 329.6612620487903 464.52722479372267 329.6612620487903L464.52722479372267 329.6612620487903L432.29483215343214 329.6612620487903L432.29483215343214 447.8467017298555Z " fill="#2b3252" transform="matrix(0.6254217321863289,0,0,0.6254217321863288,0,56.86478063580098)"/><path d="M660.4693253831432 430.34848193179045L644.9264849615088 430.34848193179045L616.5318033554186 313.7539805002464L631.4018939677583 313.7539805002464L643.9289593822099 369.89379217241844L653.6026376744808 413.48334016085283L653.9506117137712 413.48334016085283L664.8074017396292 369.89379217241844L679.4919061976808 313.7539805002464L695.5451085436077 313.7539805002464L709.7424493466528 369.89379217241844L720.599239372511 413.32095227585063L721.0864030275172 413.32095227585063L731.1080553590787 369.89379217241844L744.3078705828248 313.7539805002464L758.6675992708722 313.7539805002464L728.7650301611905 430.34848193179045L713.2453880088422 430.34848193179045L698.050521626498 372.2136191010206L687.356119485642 329.45920880688294L687.0081454463518 329.45920880688294L675.9889675354916 372.2136191010206L660.4693253831432 430.34848193179045ZM806.108059960786 432.3435330903883L806.108059960786 432.3435330903883Q797.2463210935259 432.3435330903883 790.1476506920033 429.18856846748935Q783.0489802904808 426.0104055753044 777.968559316842 420.0716486380829Q772.8649400739173 414.15608997014743 770.1043460288806 405.87430783503777Q767.3669502531302 397.6157239692141 767.3669502531302 387.2460975983625L767.3669502531302 387.2460975983625Q767.3669502531302 377.0620573817991 770.1043460288806 368.71068043883133Q772.8649400739173 360.35930349586357 777.968559316842 354.4437448279281Q783.0489802904808 348.5049878907066 790.1476506920033 345.32682499852166Q797.2463210935259 342.14866210633676 806.108059960786 342.14866210633676L806.108059960786 342.14866210633676Q814.784212673758 342.14866210633676 821.6509003824206 345.32682499852166Q828.4943898217969 348.5049878907066 833.3428281025754 354.0957707886378Q838.1680681140679 359.68655368656897 840.7662742741022 367.3883790895281Q843.3644804341366 375.06700622320125 843.3644804341366 384.2535208604657L843.3644804341366 384.2535208604657L843.3644804341366 390.5866483755496L781.3787049018872 390.5866483755496L781.3787049018872 394.5999489620313Q781.3787049018872 400.1211370521044 783.1417733676249 404.8767822557388Q784.9048418333625 409.6324274593732 788.1525995334055 413.13536612156247Q791.4003572334484 416.66150305303773 796.1792007063689 418.6565542116356Q800.9348459100033 420.6516053702334 806.9431976550829 420.6516053702334L806.9431976550829 420.6516053702334Q815.1321867130484 420.6516053702334 821.2333315352721 416.8238909380399Q827.3112780882097 412.9729782365603 830.6518288653967 405.8047130271797L830.6518288653967 405.8047130271797L840.1863175419517 412.64820246655603Q836.0106290704678 421.48674306453023 827.1488902032077 426.9151380774593Q818.3103496052333 432.3435330903883 806.108059960786 432.3435330903883ZM806.108059960786 353.3534261714851L806.108059960786 353.3534261714851Q800.5868718707129 353.3534261714851 796.0864076292248 355.2788825222249Q791.5859433877367 357.18114060367867 788.3149874184076 360.70727753515393Q785.0672297183646 364.2102161973432 783.2345664447689 368.9658614009776Q781.3787049018872 373.721506604612 781.3787049018872 379.40508257968725L781.3787049018872 379.40508257968725L781.3787049018872 380.5649960439883L828.9815534768034 380.5649960439883L828.9815534768034 378.7323327703926Q828.9815534768034 367.2027929352399 822.7180207695774 360.28970868800553Q816.4544880623516 353.3534261714851 806.108059960786 353.3534261714851ZM901.151369225616 430.34848193179045L884.4486153396806 430.34848193179045Q877.4195397460162 430.34848193179045 873.8470062759689 426.4279744224528Q870.2512745366355 422.50746691311514 870.2512745366355 416.1511411287453L870.2512745366355 416.1511411287453L870.2512745366355 355.8588392543754L856.0539337335904 355.8588392543754L856.0539337335904 344.1669115342206L864.0573366372678 344.1669115342206Q868.4186112630398 344.1669115342206 869.9960935744894 342.403843068483Q871.5735758859387 340.66397287203137 871.5735758859387 336.30269824625935L871.5735758859387 336.30269824625935L871.5735758859387 320.27269416961843L883.6134776453839 320.27269416961843L883.6134776453839 344.1669115342206L902.4736705749194 344.1669115342206L902.4736705749194 355.8588392543754L883.6134776453839 355.8588392543754L883.6134776453839 418.6565542116356L901.151369225616 418.6565542116356L901.151369225616 430.34848193179045ZM996.0090923361579 432.3435330903883L996.0090923361579 432.3435330903883Q987.3329396231859 432.3435330903883 980.1414761445192 429.18856846748935Q972.9732109351387 426.0104055753044 967.8695916922138 420.0716486380829Q962.7891707185752 414.15608997014743 959.9357835963945 405.87430783503777Q957.1055947435 397.6157239692141 957.1055947435 387.2460975983625L957.1055947435 387.2460975983625Q957.1055947435 377.0620573817991 959.9357835963945 368.71068043883133Q962.7891707185752 360.35930349586357 967.8695916922138 354.4437448279281Q972.9732109351387 348.5049878907066 980.1414761445192 345.32682499852166Q987.3329396231859 342.14866210633676 996.0090923361579 342.14866210633676L996.0090923361579 342.14866210633676Q1004.7084433184161 342.14866210633676 1011.8071137199386 345.32682499852166Q1018.905784121461 348.5049878907066 1024.078998172244 354.4437448279281Q1029.2522122230268 360.35930349586357 1032.1055993452073 368.71068043883133Q1034.935788198102 377.0620573817991 1034.935788198102 387.2460975983625L1034.935788198102 387.2460975983625Q1034.935788198102 397.6157239692141 1032.1055993452073 405.87430783503777Q1029.2522122230268 414.15608997014743 1024.078998172244 420.0716486380829Q1018.905784121461 426.0104055753044 1011.8071137199386 429.18856846748935Q1004.7084433184161 432.3435330903883 996.0090923361579 432.3435330903883ZM996.0090923361579 420.4892174852313L996.0090923361579 420.4892174852313Q1006.865882362016 420.4892174852313 1013.7325700706783 413.8081159308571Q1020.5760595100548 407.1270143764829 1020.5760595100548 393.44003549773026L1020.5760595100548 393.44003549773026L1020.5760595100548 381.0753579682808Q1020.5760595100548 367.3883790895281 1013.7325700706783 360.70727753515393Q1006.865882362016 354.0261759807797 996.0090923361579 354.0261759807797L996.0090923361579 354.0261759807797Q985.1523023103 354.0261759807797 978.3088128709235 360.70727753515393Q971.4653234315472 367.3883790895281 971.4653234315472 381.0753579682808L971.4653234315472 381.0753579682808L971.4653234315472 393.44003549773026Q971.4653234315472 407.1270143764829 978.3088128709235 413.8081159308571Q985.1523023103 420.4892174852313 996.0090923361579 420.4892174852313ZM1070.3363471285709 430.34848193179045L1056.9741440198225 430.34848193179045L1056.9741440198225 344.1669115342206L1070.3363471285709 344.1669115342206L1070.3363471285709 360.0345277258593L1071.1714848228676 360.0345277258593Q1073.5145100207558 353.84058982649157 1079.5228617658354 349.01534981499907Q1085.554411780201 344.1669115342206 1096.0632277667687 344.1669115342206L1096.0632277667687 344.1669115342206L1101.2364418175514 344.1669115342206L1101.2364418175514 357.529114642969L1093.395426798876 357.529114642969Q1082.5386367730182 357.529114642969 1076.4374919507945 361.6120100373088Q1070.3363471285709 365.7181037009346 1070.3363471285709 371.8888433310163L1070.3363471285709 371.8888433310163L1070.3363471285709 430.34848193179045ZM1159.0465288783168 430.34848193179045L1159.0465288783168 313.7539805002464L1198.112414355977 313.7539805002464Q1208.9692043818352 313.7539805002464 1217.8309432490953 317.44250531672384Q1226.6926821163556 321.10783186391524 1232.9562148235816 328.36889015044Q1239.2197475308074 335.6531467062507 1242.5602983079943 346.5795315399668Q1245.9008490851813 357.529114642969 1245.9008490851813 372.05123121601844L1245.9008490851813 372.05123121601844Q1245.9008490851813 386.5965460583539 1242.5602983079943 397.52293089207Q1239.2197475308074 408.4725139950722 1232.9562148235816 415.7335722815969Q1226.6926821163556 422.99463056812164 1217.8309432490953 426.68315538459905Q1208.9692043818352 430.34848193179045 1198.112414355977 430.34848193179045L1198.112414355977 430.34848193179045L1159.0465288783168 430.34848193179045ZM1173.0582835270739 417.983804402341L1198.112414355977 417.983804402341Q1205.3038778346438 417.983804402341 1211.3122295797234 415.57118439659473Q1217.320581324803 413.13536612156247 1221.681855950575 408.4725139950722Q1226.019932307061 403.7864635992958 1228.432552312807 397.03576723706357Q1230.8683705878395 390.2618726055453 1230.8683705878395 381.58571989257325L1230.8683705878395 381.58571989257325L1230.8683705878395 362.53994080874963Q1230.8683705878395 353.84058982649157 1228.432552312807 347.0898934642593Q1226.019932307061 340.31599883274106 1221.681855950575 335.6531467062507Q1217.320581324803 330.96709631047435 1211.3122295797234 328.5544763047281Q1205.3038778346438 326.1186580296959 1198.112414355977 326.1186580296959L1198.112414355977 326.1186580296959L1173.0582835270739 326.1186580296959L1173.0582835270739 417.983804402341ZM1283.1340712892459 430.34848193179045L1269.7718681804974 430.34848193179045L1269.7718681804974 344.1669115342206L1283.1340712892459 344.1669115342206L1283.1340712892459 360.0345277258593L1283.9692089835428 360.0345277258593Q1286.3122341814308 353.84058982649157 1292.3205859265106 349.01534981499907Q1298.32893767159 344.1669115342206 1308.860951927444 344.1669115342206L1308.860951927444 344.1669115342206L1314.0341659782264 344.1669115342206L1314.0341659782264 357.529114642969L1306.1931509595513 357.529114642969Q1295.3363609336932 357.529114642969 1289.2352161114698 361.6120100373088Q1283.1340712892459 365.7181037009346 1283.1340712892459 371.8888433310163L1283.1340712892459 371.8888433310163L1283.1340712892459 430.34848193179045ZM1364.9775653303298 402.7889380199969L1385.856007687749 344.1669115342206L1399.0558229114952 344.1669115342206L1360.4771010888414 450.39178659491296Q1358.9692135852501 454.2426992963926 1357.4613260816589 456.8177071871409Q1355.9534385780673 459.4159133471754 1353.7959995344675 460.9238008507668Q1351.6153622215813 462.40849008507206 1348.3676045215384 463.0812398943668Q1345.0966485522092 463.7539897036614 1340.433796425719 463.7539897036614L1340.433796425719 463.7539897036614L1333.5903069863427 463.7539897036614L1333.5903069863427 452.06206198350657L1347.1148979800932 452.06206198350657L1353.6336116494651 433.68903270897755L1321.3880173418954 344.1669115342206L1334.7502204506438 344.1669115342206L1355.4662749230608 402.7889380199969L1359.4795755095427 416.8238909380399L1360.3147132038393 416.8238909380399L1364.9775653303298 402.7889380199969Z " fill="#fad744" transform="matrix(0.6254217321863289,0,0,0.6254217321863288,0,56.86478063580098)"/></g></svg>